<svg xmlns="http://www.w3.org/2000/svg" viewBox="0 0 250 250"><defs><style>.cls-1{fill:#e6007e;}</style></defs><title>Asset 2Logo 250px</title><g id="Layer_2" data-name="Layer 2"><g id="Layer_1-2" data-name="Layer 1"><path d="M68.51,91.47A12.78,12.78,0,0,1,69.28,87a10.51,10.51,0,0,1,5.77-6.14,11.65,11.65,0,0,1,4.74-.91,15.2,15.2,0,0,1,3.21.31,15.5,15.5,0,0,1,2.83.89l-1.29,5a14.55,14.55,0,0,0-1.92-.58,9.79,9.79,0,0,0-2.33-.25,4.93,4.93,0,0,0-4.1,1.7,7.05,7.05,0,0,0-1.35,4.5,7.26,7.26,0,0,0,1.27,4.58c.85,1.08,2.32,1.63,4.43,1.63A15.14,15.14,0,0,0,83,97.47a10.06,10.06,0,0,0,2.37-.67l.88,5.08a14.34,14.34,0,0,1-2.71.79,18,18,0,0,1-3.58.34,13.47,13.47,0,0,1-5.17-.9,9.77,9.77,0,0,1-3.56-2.44,9.45,9.45,0,0,1-2-3.64A15.47,15.47,0,0,1,68.51,91.47Z"/><polygon points="101.95 72.65 95.1 78.44 92.24 75.9 98.14 69.15 101.95 72.65"/><rect x="92.24" y="80.52" width="6.21" height="21.9"/><path d="M105.32,81.27a34.77,34.77,0,0,1,4.08-.86,34.11,34.11,0,0,1,5.25-.39,12.65,12.65,0,0,1,4.64.73,6.88,6.88,0,0,1,2.94,2.06A8.12,8.12,0,0,1,123.77,86a17.14,17.14,0,0,1,.46,4.08v12.37H118V90.81a8.31,8.31,0,0,0-.79-4.25,3.21,3.21,0,0,0-3-1.25c-.45,0-.92,0-1.42.06s-1,.09-1.33.15v16.9h-6.21Z"/><path d="M130.68,75.06l6.21-1v6.46h7.45v5.16h-7.45v7.71a6.22,6.22,0,0,0,.68,3.12,3,3,0,0,0,2.77,1.17,12.24,12.24,0,0,0,2.06-.19,11.16,11.16,0,0,0,1.94-.52l.88,4.83a18.4,18.4,0,0,1-2.5.79,14.74,14.74,0,0,1-3.38.33,11.25,11.25,0,0,1-4.2-.68,6.66,6.66,0,0,1-2.67-1.92,7.15,7.15,0,0,1-1.39-3,17.11,17.11,0,0,1-.4-3.87Z"/><path d="M156.63,102.42h-6.21V80.52h6.21Z"/><path d="M171.43,79.94a14.34,14.34,0,0,1,4.59.62A7.07,7.07,0,0,1,179,82.35a6.49,6.49,0,0,1,1.56,2.83,13.81,13.81,0,0,1,.46,3.71V101.8c-.89.19-2.12.42-3.7.69a36.22,36.22,0,0,1-5.75.39,18.16,18.16,0,0,1-3.85-.37,8.28,8.28,0,0,1-3-1.23,5.69,5.69,0,0,1-1.92-2.23,7.76,7.76,0,0,1-.66-3.37,6.33,6.33,0,0,1,.77-3.25,5.93,5.93,0,0,1,2.06-2.13,9.51,9.51,0,0,1,3-1.14,16.28,16.28,0,0,1,3.45-.36,19.47,19.47,0,0,1,2.15.11,9.88,9.88,0,0,1,1.52.27V88.6a3.41,3.41,0,0,0-1-2.54,4.63,4.63,0,0,0-3.33-1,21.66,21.66,0,0,0-3.13.23,13.85,13.85,0,0,0-2.66.64l-.79-5q.54-.17,1.35-.36t1.77-.33c.64-.1,1.31-.18,2-.25S170.71,79.94,171.43,79.94Zm.51,18.15c.61,0,1.19,0,1.74,0a11.66,11.66,0,0,0,1.34-.13v-4.7a11.4,11.4,0,0,0-1.13-.17c-.5,0-1-.08-1.37-.08a12.4,12.4,0,0,0-1.65.1,4.45,4.45,0,0,0-1.35.4,2.37,2.37,0,0,0-.92.79,2.22,2.22,0,0,0-.33,1.25,2.14,2.14,0,0,0,1,2A5.47,5.47,0,0,0,171.94,98.09Z"/><path d="M68.51,117.36a36.46,36.46,0,0,1,4.08-.86,33.92,33.92,0,0,1,5.25-.39,12.69,12.69,0,0,1,4.64.73,6.91,6.91,0,0,1,2.93,2.06A8,8,0,0,1,87,122.07a17.08,17.08,0,0,1,.46,4.08v12.36H81.21V126.9a8.34,8.34,0,0,0-.79-4.25,3.25,3.25,0,0,0-3-1.25c-.44,0-.91,0-1.42.06s-.94.09-1.33.15v16.9h-6.2Z"/><path d="M111.43,137.77a36.75,36.75,0,0,1-4.08.85,33.88,33.88,0,0,1-5.24.39,12.73,12.73,0,0,1-4.65-.74,7.09,7.09,0,0,1-2.93-2.11A8.19,8.19,0,0,1,93,132.94a17.72,17.72,0,0,1-.45-4.13v-12.2h6.2v11.45a9,9,0,0,0,.79,4.33,3.16,3.16,0,0,0,3,1.34c.44,0,.92,0,1.42-.07s.94-.09,1.33-.14V116.61h6.2Z"/><path d="M117.06,117.36a36.46,36.46,0,0,1,4.08-.86,33.88,33.88,0,0,1,5.24-.39,12.75,12.75,0,0,1,4.65.73A6.91,6.91,0,0,1,134,118.9a8,8,0,0,1,1.55,3.17,17.1,17.1,0,0,1,.45,4.08v12.36h-6.2V126.9a8.45,8.45,0,0,0-.79-4.25,3.25,3.25,0,0,0-3-1.25c-.44,0-.92,0-1.42.06s-.94.09-1.33.15v16.9h-6.2Z"/><path d="M140.33,127.73a13.35,13.35,0,0,1,.9-5.1,11.1,11.1,0,0,1,2.35-3.65,9.7,9.7,0,0,1,3.36-2.2,10.47,10.47,0,0,1,3.89-.75,9.67,9.67,0,0,1,7.37,2.85c1.8,1.9,2.71,4.7,2.71,8.39,0,.36,0,.76,0,1.19s-.06.81-.09,1.14H146.71a4.08,4.08,0,0,0,1.79,3,7.17,7.17,0,0,0,4.24,1.13,18.75,18.75,0,0,0,3.36-.31,13.07,13.07,0,0,0,2.68-.77l.84,5a7.83,7.83,0,0,1-1.34.5,15.29,15.29,0,0,1-1.85.44c-.68.13-1.41.23-2.19.31a20.09,20.09,0,0,1-2.33.13,13.66,13.66,0,0,1-5.14-.88,9.91,9.91,0,0,1-3.62-2.39,9.46,9.46,0,0,1-2.13-3.6A14.24,14.24,0,0,1,140.33,127.73Zm14.58-2.38a6.72,6.72,0,0,0-.27-1.54,3.88,3.88,0,0,0-.71-1.33,3.73,3.73,0,0,0-1.21-1,3.92,3.92,0,0,0-1.81-.37,4.26,4.26,0,0,0-1.79.35,3.71,3.71,0,0,0-1.25.94,4.28,4.28,0,0,0-.77,1.35,8.9,8.9,0,0,0-.39,1.56Z"/><path d="M171.69,134.06a6.24,6.24,0,0,0,2.41-.33,1.31,1.31,0,0,0,.71-1.3,1.59,1.59,0,0,0-.92-1.31,17.6,17.6,0,0,0-2.79-1.27,28,28,0,0,1-2.64-1.12,7.55,7.55,0,0,1-2-1.4,5.46,5.46,0,0,1-1.29-1.93,7.11,7.11,0,0,1-.46-2.71,5.84,5.84,0,0,1,2.29-4.87,9.93,9.93,0,0,1,6.29-1.79,19.84,19.84,0,0,1,3.83.35,18.36,18.36,0,0,1,2.92.77L178.93,122a23.76,23.76,0,0,0-2.35-.67,13.08,13.08,0,0,0-2.85-.29c-1.95,0-2.92.54-2.92,1.63a1.6,1.6,0,0,0,.13.67,1.46,1.46,0,0,0,.49.56,8.06,8.06,0,0,0,1,.58c.43.21,1,.44,1.64.69a27.86,27.86,0,0,1,3.38,1.49,8.48,8.48,0,0,1,2.1,1.59,5,5,0,0,1,1.08,1.89,8.34,8.34,0,0,1,.31,2.41,5.57,5.57,0,0,1-2.43,4.91,12.26,12.26,0,0,1-6.9,1.66,20,20,0,0,1-4.85-.5,19.06,19.06,0,0,1-2.68-.83l1-5a21,21,0,0,0,3.25,1A16.14,16.14,0,0,0,171.69,134.06Z"/><path d="M82.08,146.33l3.46-.59v28.31c-.79.22-1.81.45-3.05.67a24.54,24.54,0,0,1-4.27.33,10.87,10.87,0,0,1-4-.7,8.5,8.5,0,0,1-5-5.19,12,12,0,0,1-.69-4.23,13.94,13.94,0,0,1,.57-4.09,9.16,9.16,0,0,1,1.7-3.2,7.7,7.7,0,0,1,2.73-2.08,8.7,8.7,0,0,1,3.7-.75,8.94,8.94,0,0,1,3,.45,9.63,9.63,0,0,1,1.91.86Zm0,13a7.29,7.29,0,0,0-1.82-1,6.88,6.88,0,0,0-2.6-.49,5.71,5.71,0,0,0-2.55.54,4.81,4.81,0,0,0-1.73,1.49,6.29,6.29,0,0,0-1,2.25,12.44,12.44,0,0,0-.29,2.79,7.49,7.49,0,0,0,1.67,5.23A5.73,5.73,0,0,0,78.25,172a17.53,17.53,0,0,0,2.37-.13,9.73,9.73,0,0,0,1.46-.28Z"/><path d="M91.5,165a12.48,12.48,0,0,1,.74-4.48,9.49,9.49,0,0,1,2-3.18,8,8,0,0,1,2.83-1.9,8.89,8.89,0,0,1,3.28-.63,7.43,7.43,0,0,1,6,2.43c1.39,1.63,2.09,4.1,2.09,7.43v.57a4.28,4.28,0,0,1,0,.65H95.11a7.08,7.08,0,0,0,1.75,4.58,6.39,6.39,0,0,0,4.76,1.56,12.79,12.79,0,0,0,3.07-.31,10.61,10.61,0,0,0,1.87-.62l.49,2.91a10.62,10.62,0,0,1-2.22.7,15.57,15.57,0,0,1-3.58.37,11.4,11.4,0,0,1-4.38-.76,8.31,8.31,0,0,1-3-2.1A8.67,8.67,0,0,1,92.07,169,13.6,13.6,0,0,1,91.5,165Zm13.28-1.9a5.88,5.88,0,0,0-1.17-3.85,4.05,4.05,0,0,0-3.33-1.5,4.51,4.51,0,0,0-2.1.46,5,5,0,0,0-1.55,1.21,5.57,5.57,0,0,0-1,1.71,8.56,8.56,0,0,0-.47,2Z"/><path d="M119.1,172.12a6.84,6.84,0,0,0,3.15-.56,1.89,1.89,0,0,0,1-1.79,2.38,2.38,0,0,0-1-2,16,16,0,0,0-3.31-1.67c-.75-.3-1.46-.6-2.14-.91a7.5,7.5,0,0,1-1.77-1.1,4.72,4.72,0,0,1-1.19-1.53,4.8,4.8,0,0,1-.45-2.19,5,5,0,0,1,1.9-4.08,8.13,8.13,0,0,1,5.17-1.5,15,15,0,0,1,1.64.09c.54.06,1,.14,1.52.22s.89.18,1.25.28.64.19.84.26l-.64,3a8.54,8.54,0,0,0-1.74-.61,11.36,11.36,0,0,0-2.87-.32,5.22,5.22,0,0,0-2.53.58,1.9,1.9,0,0,0-1.08,1.8,2.49,2.49,0,0,0,.24,1.12,2.53,2.53,0,0,0,.75.87,6.44,6.44,0,0,0,1.24.73c.5.22,1.09.46,1.79.7.92.35,1.74.69,2.46,1a7.44,7.44,0,0,1,1.84,1.17,4.33,4.33,0,0,1,1.17,1.62,5.87,5.87,0,0,1,.41,2.32,4.61,4.61,0,0,1-2,4.06,10,10,0,0,1-5.68,1.37,15,15,0,0,1-4-.42c-1-.29-1.63-.51-2-.65l.63-3c.39.15,1,.37,1.9.67A10.8,10.8,0,0,0,119.1,172.12Z"/><path d="M135.74,174.61h-3.46V155.26h3.46Z"/><path d="M154.89,172.67a9.31,9.31,0,0,1-1.73.77,9,9,0,0,1-3,.46,9.59,9.59,0,0,1-3.29-.56,7.15,7.15,0,0,1-2.7-1.73,8.2,8.2,0,0,1-1.82-2.92,12.78,12.78,0,0,1,0-8.05,8.48,8.48,0,0,1,1.84-3,8.27,8.27,0,0,1,3-2,10.06,10.06,0,0,1,3.94-.73,21.77,21.77,0,0,1,4.22.36c1.21.23,2.22.45,3,.65v17.26c0,3-.76,5.13-2.3,6.47s-3.87,2-7,2a20.08,20.08,0,0,1-6.25-1l.63-3a16,16,0,0,0,2.55.73,15.27,15.27,0,0,0,3.14.31c2.06,0,3.54-.4,4.44-1.22a5,5,0,0,0,1.36-3.91Zm0-14.36a12.21,12.21,0,0,0-1.4-.28,17.9,17.9,0,0,0-2.36-.13,5.29,5.29,0,0,0-4.3,1.82,7.39,7.39,0,0,0-1.5,4.84,8.69,8.69,0,0,0,.42,2.87,5.68,5.68,0,0,0,1.16,2,4.51,4.51,0,0,0,1.67,1.15,5.24,5.24,0,0,0,1.95.37,7.85,7.85,0,0,0,2.53-.39,6.23,6.23,0,0,0,1.83-.91Z"/><path d="M165.35,155.82c.79-.2,1.84-.41,3.16-.63a26.6,26.6,0,0,1,4.54-.34,9.87,9.87,0,0,1,3.83.65,6,6,0,0,1,2.44,1.83,7.14,7.14,0,0,1,1.28,2.8,16.28,16.28,0,0,1,.37,3.61v10.87h-3.46V164.49a16.61,16.61,0,0,0-.24-3.05,5.2,5.2,0,0,0-.8-2.05,3.12,3.12,0,0,0-1.49-1.13,6.42,6.42,0,0,0-2.3-.36c-.38,0-.76,0-1.16,0l-1.13.09c-.36,0-.69.08-1,.13l-.61.11v16.34h-3.46Z"/><path d="M211.7,26.06A12.25,12.25,0,0,1,223.94,38.3V211.7a12.25,12.25,0,0,1-12.24,12.24H38.3A12.25,12.25,0,0,1,26.06,211.7V38.3A12.25,12.25,0,0,1,38.3,26.06H211.7m0-1.64H38.3A13.93,13.93,0,0,0,24.42,38.3V211.7A13.93,13.93,0,0,0,38.3,225.58H211.7a13.93,13.93,0,0,0,13.88-13.88V38.3A13.93,13.93,0,0,0,211.7,24.42Z"/><path class="cls-1" d="M195.32,12.32h0a12.22,12.22,0,0,1,12.06,10.12L237.49,193.2a12.25,12.25,0,0,1-9.93,14.18L56.8,237.49a11.61,11.61,0,0,1-2.12.19,12.22,12.22,0,0,1-12.06-10.12L12.51,56.8a12.25,12.25,0,0,1,9.93-14.18L193.2,12.51a11.61,11.61,0,0,1,2.12-.19m0-1.64a14,14,0,0,0-2.4.21L22.15,41A13.94,13.94,0,0,0,10.89,57.08L41,227.85a13.89,13.89,0,0,0,16.08,11.26L227.85,209a13.93,13.93,0,0,0,11.26-16.08L209,22.15a13.94,13.94,0,0,0-13.68-11.47Z"/><path d="M176.78,1.64h0a12.29,12.29,0,0,1,11.54,8l59.31,162.94a12.27,12.27,0,0,1-7.32,15.69L77.37,247.63a12.27,12.27,0,0,1-15.69-7.32L2.37,77.37A12.3,12.3,0,0,1,9.69,61.68L172.63,2.37a12.3,12.3,0,0,1,4.15-.73m0-1.64a13.88,13.88,0,0,0-4.71.83L9.13,60.14A13.93,13.93,0,0,0,.83,77.93L60.14,240.87a13.9,13.9,0,0,0,17.79,8.3l162.94-59.31a13.93,13.93,0,0,0,8.3-17.79L189.86,9.13A13.93,13.93,0,0,0,176.78,0Z"/></g></g></svg>